<mxfile host="Electron" modified="2024-10-09T13:33:20.663Z" agent="Mozilla/5.0 (X11; Linux x86_64) AppleWebKit/537.36 (KHTML, like Gecko) draw.io/22.0.3 Chrome/118.0.5993.159 Electron/27.3.11 Safari/537.36" etag="aPT1T3ERvf0LNz0QQj8M" version="22.0.3" type="device">
  <diagram name="第1頁" id="I6c9-OigBlA-dOcOUIta">
    <mxGraphModel dx="945" dy="583" grid="1" gridSize="10" guides="1" tooltips="1" connect="1" arrows="1" fold="1" page="1" pageScale="1" pageWidth="850" pageHeight="1100" math="0" shadow="0">
      <root>
        <mxCell id="0" />
        <mxCell id="1" parent="0" />
        <mxCell id="lrLrYLsiRzPZU7EhWnFM-10" value="" style="rounded=0;whiteSpace=wrap;html=1;" vertex="1" parent="1">
          <mxGeometry x="150" y="81" width="440" height="332" as="geometry" />
        </mxCell>
        <mxCell id="lrLrYLsiRzPZU7EhWnFM-2" value="地圖" style="rounded=1;whiteSpace=wrap;html=1;" vertex="1" parent="1">
          <mxGeometry x="163" y="150" width="260" height="230" as="geometry" />
        </mxCell>
        <mxCell id="lrLrYLsiRzPZU7EhWnFM-3" value="" style="rounded=1;whiteSpace=wrap;html=1;" vertex="1" parent="1">
          <mxGeometry x="440" y="158" width="139" height="220" as="geometry" />
        </mxCell>
        <mxCell id="lrLrYLsiRzPZU7EhWnFM-5" value="搜尋欄" style="rounded=1;whiteSpace=wrap;html=1;" vertex="1" parent="1">
          <mxGeometry x="469" y="180" width="100" height="20" as="geometry" />
        </mxCell>
        <mxCell id="lrLrYLsiRzPZU7EhWnFM-6" value="商品甲" style="rounded=1;whiteSpace=wrap;html=1;" vertex="1" parent="1">
          <mxGeometry x="469" y="210" width="100" height="40" as="geometry" />
        </mxCell>
        <mxCell id="lrLrYLsiRzPZU7EhWnFM-7" value="&lt;span style=&quot;color: rgb(0, 0, 0); font-family: Helvetica; font-size: 12px; font-style: normal; font-variant-ligatures: normal; font-variant-caps: normal; font-weight: 400; letter-spacing: normal; orphans: 2; text-align: center; text-indent: 0px; text-transform: none; widows: 2; word-spacing: 0px; -webkit-text-stroke-width: 0px; background-color: rgb(251, 251, 251); text-decoration-thickness: initial; text-decoration-style: initial; text-decoration-color: initial; float: none; display: inline !important;&quot;&gt;商品乙&lt;/span&gt;" style="rounded=1;whiteSpace=wrap;html=1;" vertex="1" parent="1">
          <mxGeometry x="469" y="260" width="100" height="40" as="geometry" />
        </mxCell>
        <mxCell id="lrLrYLsiRzPZU7EhWnFM-8" value="商品丙" style="rounded=1;whiteSpace=wrap;html=1;" vertex="1" parent="1">
          <mxGeometry x="469" y="310" width="100" height="40" as="geometry" />
        </mxCell>
        <mxCell id="lrLrYLsiRzPZU7EhWnFM-9" value="" style="triangle;whiteSpace=wrap;html=1;" vertex="1" parent="1">
          <mxGeometry x="450" y="257" width="10" height="20" as="geometry" />
        </mxCell>
        <mxCell id="lrLrYLsiRzPZU7EhWnFM-15" value="選單列" style="rounded=1;whiteSpace=wrap;html=1;" vertex="1" parent="1">
          <mxGeometry x="163" y="98" width="417" height="32" as="geometry" />
        </mxCell>
      </root>
    </mxGraphModel>
  </diagram>
</mxfile>
